<svg version="1.0" xmlns="http://www.w3.org/2000/svg" width="800.000000" height="800.000000" viewBox="0 0 800.000000 800.000000" preserveAspectRatio="xMidYMid meet">
  <metadata>
    <rdf:RDF xmlns:rdf="http://www.w3.org/1999/02/22-rdf-syntax-ns#" xmlns:rdfs="http://www.w3.org/2000/01/rdf-schema#" xmlns:dc="http://purl.org/dc/elements/1.1/">
      <rdf:Description dc:format="image/svg+xml" dc:Label="1" dc:ContentProducer="001191330110MACRLGPT8B00000" dc:ProduceID="436360485" dc:ReservedCode1="tBaAYh7xq011777fExMY1abrtOXAycrCUUEpHCu47ko=" dc:ContentPropagator="001191330110MACRLGPT8B00000" dc:PropagateID="436360485" dc:ReservedCode2="tBaAYh7xq011777fExMY1abrtOXAycrCUUEpHCu47ko="/>
    </rdf:RDF>
  </metadata>
  <g transform="translate(106.755820,718.128065) scale(0.076660,-0.076660)" fill="#000000" stroke="none">
    <path d="M4560 6871 c-47 -25 -71 -60 -77 -115 -5 -38 -1 -53 20 -85 21 -31 28 -58 33 -120 8 -96 9 -96 -91 -46 -78 39 -147 55 -239 55 -128 0 -182 -37 -174 -122 10 -103 95 -220 193 -267 28 -13 52 -25 54 -27 2 -2 -76 -247 -174 -546 -97 -299 -208 -639 -246 -756 -100 -309 -149 -405 -276 -543 -141 -152 -302 -240 -696 -378 -142 -50 -290 -107 -328 -127 -80 -42 -184 -134 -242 -213 -22 -31 -74 -87 -115 -126 -160 -149 -209 -279 -232 -617 -9 -133 -11 -144 -32 -158 -58 -37 -106 -96 -122 -149 -42 -141 5 -283 87 -267 42 8 139 79 169 122 68 98 76 181 27 258 l-30 49 10 158 c12 184 31 280 73 366 39 80 60 100 47 46 -23 -101 -8 -281 46 -551 35 -175 33 -224 -12 -336 l-38 -91 0 -355 c0 -312 2 -359 17 -385 26 -48 69 -86 125 -112 52 -24 56 -24 296 -21 l244 3 49 30 c30 19 60 49 79 79 l30 49 5 306 c3 168 9 313 15 321 5 8 44 61 87 117 80 106 131 198 163 293 11 30 24 61 30 68 10 12 321 59 330 50 2 -2 13 -199 24 -438 11 -239 23 -493 27 -565 8 -177 35 -238 129 -288 38 -21 53 -22 285 -22 220 0 249 2 283 19 52 26 96 72 121 126 21 44 21 56 22 805 l0 760 26 55 c76 165 77 429 1 618 l-25 63 32 227 c17 125 42 310 56 412 14 102 34 246 44 320 10 74 35 254 55 400 20 146 44 317 53 380 l17 115 35 -2 c136 -7 259 -4 340 6 l95 13 65 -30 c108 -48 168 -64 244 -65 152 -1 256 99 256 246 0 51 -6 76 -31 125 -38 77 -86 118 -213 184 -144 73 -200 111 -291 195 -49 46 -104 86 -144 105 l-64 30 6 61 c3 38 13 70 26 88 27 37 28 112 2 155 -38 62 -136 82 -211 44 -63 -32 -78 -76 -68 -195 1 -11 1 -44 0 -72 -2 -51 -3 -53 -31 -53 -26 0 -30 4 -35 38 -9 54 -10 102 -2 139 11 50 -23 117 -73 142 -50 26 -115 27 -161 2z"/>
  </g>
</svg>